<svg preserveAspectRatio="none" width="100%" height="100%" overflow="visible" style="display: block;" viewBox="0 0 30 30" fill="none" xmlns="http://www.w3.org/2000/svg">
<path id="Icon" fill-rule="evenodd" clip-rule="evenodd" d="M13.9502 0.428564C14.5334 -0.142855 15.4666 -0.142855 16.0498 0.428564L18.3108 2.64389L21.3766 1.85588C22.1674 1.65262 22.9755 2.11919 23.1948 2.90565L24.0453 5.9547L27.0943 6.80515C27.8808 7.02452 28.3474 7.83263 28.1441 8.62341L27.3561 11.6892L29.5714 13.9502C30.1429 14.5334 30.1429 15.4666 29.5714 16.0498L27.3561 18.3108L28.1441 21.3766C28.3474 22.1674 27.8808 22.9755 27.0943 23.1948L24.0453 24.0453L23.1948 27.0943C22.9755 27.8808 22.1674 28.3474 21.3766 28.1441L18.3108 27.3561L16.0498 29.5714C15.4666 30.1429 14.5334 30.1429 13.9502 29.5714L11.6892 27.3561L8.62341 28.1441C7.83263 28.3474 7.02452 27.8808 6.80515 27.0943L5.9547 24.0453L2.90565 23.1948C2.11919 22.9755 1.65262 22.1674 1.85588 21.3766L2.64389 18.3108L0.428564 16.0498C-0.142855 15.4666 -0.142855 14.5334 0.428564 13.9502L2.64389 11.6892L1.85588 8.62341C1.65262 7.83263 2.11919 7.02452 2.90565 6.80515L5.9547 5.9547L6.80515 2.90565C7.02452 2.11919 7.83263 1.65262 8.62341 1.85588L11.6892 2.64389L13.9502 0.428564ZM20.5607 13.0607C21.1464 12.4749 21.1464 11.5251 20.5607 10.9393C19.9749 10.3536 19.0251 10.3536 18.4393 10.9393L13.5 15.8787L11.5607 13.9393C10.9749 13.3536 10.0251 13.3536 9.43934 13.9393C8.85355 14.5251 8.85355 15.4749 9.43934 16.0607L12.4393 19.0607C13.0251 19.6464 13.9749 19.6464 14.5607 19.0607L20.5607 13.0607Z" fill="#FFE533"/>
</svg>
