<svg preserveAspectRatio="none" width="100%" height="100%" overflow="visible" style="display: block;" viewBox="0 0 33 22.2422" fill="none" xmlns="http://www.w3.org/2000/svg">
<g id="Icon">
<path fill-rule="evenodd" clip-rule="evenodd" d="M6 4.24237C8.60923 1.63546 12.3532 -0.975803 15.258 0.36214L10.916 4.70587C10.8186 4.80326 10.7347 4.88716 10.6622 4.96692C9.1016 6.68388 9.10226 9.30593 10.6637 11.0221L10.6806 11.0398C10.8567 11.2238 11.0337 11.409 11.2222 11.5803C12.9388 13.1402 15.56 13.1398 17.2761 11.5793C17.3559 11.5068 17.4397 11.4229 17.5372 11.3254L17.9988 10.8638L22.1888 15.0528C22.3203 15.1844 22.3487 15.2134 22.3666 15.2331C22.6269 15.5194 22.7567 15.8789 22.7567 16.242C22.7567 16.9413 23.2352 17.5289 23.8827 17.695C23.7721 17.8947 23.6369 18.0845 23.4773 18.2602C23.4292 18.313 23.3694 18.3729 23.25 18.4923C23.1306 18.6117 23.0708 18.6715 23.0179 18.7196C21.8737 19.7596 20.1263 19.7596 18.9821 18.7196C18.9292 18.6715 18.8694 18.6117 18.75 18.4923L18 17.7423C17.1821 18.5601 16.7732 18.9691 16.332 19.1877C15.4927 19.6036 14.5073 19.6036 13.668 19.1877C13.2268 18.9691 12.8179 18.5601 12 17.7423C10.9663 19.1206 8.84345 18.9292 8.07295 17.3882L7.5 16.2423H6V20.7422C6 21.5706 5.32843 22.2422 4.5 22.2422H1.5C0.671573 22.2422 0 21.5706 0 20.7422V4.24219C0 3.41376 0.671573 2.74219 1.5 2.74219H4.5C5.32843 2.74219 6 3.41394 6 4.24237ZM4.5 19.2151C4.5 20.0435 3.82843 20.7151 3 20.7151C2.17157 20.7151 1.5 20.0435 1.5 19.2151C1.5 18.3867 2.17157 17.7151 3 17.7151C3.82843 17.7151 4.5 18.3867 4.5 19.2151Z" fill="#FFE533"/>
<path fill-rule="evenodd" clip-rule="evenodd" d="M16.4993 1.24229C19.4993 -1.75802 23.9993 1.24497 26.9993 4.24229C27 3.41461 27.6724 2.74253 28.5001 2.74219H31.5C32.3284 2.74219 33 3.41376 33 4.24219V20.7422C33 21.5706 32.3284 22.2422 31.5 22.2422H28.5C27.6716 22.2422 27 21.5706 27 20.7422V16.2423L24.2567 16.2422C24.2567 15.5194 23.9966 14.7965 23.4766 14.2244C23.4285 14.1715 23.3687 14.1117 23.2493 13.9923L17.9987 8.74277L16.4981 10.2434C16.3792 10.3623 16.3196 10.4219 16.267 10.4698C15.1229 11.5101 13.3755 11.5104 12.231 10.4704C12.1784 10.4225 12.1187 10.3629 11.9997 10.2439C11.8807 10.1251 11.8211 10.0655 11.7732 10.0128C10.7322 8.86873 10.7318 7.1207 11.7722 5.97606C11.8201 5.92336 11.8796 5.86382 11.9986 5.74474L16.4993 1.24229ZM31.5 19.2151C31.5 20.0435 30.8284 20.7151 30 20.7151C29.1716 20.7151 28.5 20.0435 28.5 19.2151C28.5 18.3867 29.1716 17.7151 30 17.7151C30.8284 17.7151 31.5 18.3867 31.5 19.2151Z" fill="#FFE533"/>
</g>
</svg>
