<svg preserveAspectRatio="none" width="100%" height="100%" overflow="visible" style="display: block;" viewBox="0 0 148.425 69.6084" fill="none" xmlns="http://www.w3.org/2000/svg">
<path id="Vector" fill-rule="evenodd" clip-rule="evenodd" d="M16.2204 0.423618C11.8308 1.43073 7.56683 3.85156 4.97832 6.80593C3.11749 8.92998 1.11015 12.7766 0.489118 15.4082C-0.547643 19.8016 0.117409 25.6104 2.10739 29.5417C4.81445 34.8893 9.97127 38.8816 15.9656 40.2702C18.7071 40.9054 23.6926 40.8949 26.1801 40.2486C34.4538 38.0995 40.254 31.0148 40.9935 22.1545C41.3795 17.5328 42.3289 17.9169 30.7507 18.0147C20.7183 18.0994 20.7183 18.0994 20.627 21.7644C20.5592 24.4804 20.6424 25.4968 20.9483 25.6907C21.1751 25.8345 23.4209 25.9545 25.9389 25.9573C28.4571 25.9599 30.5171 26.0782 30.5171 26.2201C30.5171 26.3623 30.0968 27.1403 29.5833 27.9493C26.9022 32.1724 20.5139 33.5162 15.4079 30.9316C13.3411 29.8855 10.7912 27.0146 10.0709 24.9229C9.26832 22.5919 9.30784 18.0124 10.1483 15.9569C12.1849 10.9766 16.2792 8.42055 21.7958 8.68463C24.7784 8.82778 26.5822 9.62478 29.0754 11.9005C30.0362 12.7782 31.0268 13.4485 31.2757 13.3907C31.8546 13.2562 37.5853 8.38564 37.5853 8.02793C37.5853 7.41629 34.8804 4.7571 32.8462 3.36879C29.4468 1.04858 26.646 0.199212 22.0034 0.079869C19.5289 0.016706 17.4576 0.139543 16.2204 0.423618ZM59.2737 0.485194C52.1499 2.20551 46.2323 7.83812 44.1396 14.8902C42.8907 19.0989 43.6915 27.5665 45.3391 27.5665C48.0173 27.5665 53.5893 25.0597 55.8032 22.8582C57.2766 21.3934 60.5534 15.2812 60.2662 14.5334C59.7545 13.2022 54.8742 15.0171 52.9602 17.2504C52.3365 17.9782 51.6329 19.1602 51.3961 19.8769C50.6914 22.0095 50.3267 21.7946 50.5023 19.3506C50.7946 15.2863 53.4052 11.5232 57.0998 9.84125C59.4654 8.7643 63.4805 8.82778 65.9439 9.98122C68.517 11.1854 72.4928 13.9878 73.3206 15.1799C73.6999 15.7265 74.8905 17.1174 75.9668 18.2708C80.5767 23.2108 80.9792 26.7521 77.0015 27.384C76.0668 27.5323 75.2891 27.955 74.4521 28.7701C73.1438 30.0435 72.7217 29.9547 72.5487 28.3689C72.4436 27.4063 72.4436 27.4063 69.9123 27.312C67.3811 27.2171 67.3811 27.2171 66.0083 28.6486C64.6663 30.0474 59.1108 38.9295 59.1108 39.6757C59.1108 40.7301 65.8286 41.1044 69.2439 40.2401C70.297 39.9738 72.3874 39.1568 73.8894 38.4249C78.8735 35.9967 82.9645 30.9948 84.3779 25.6012C85.0302 23.1109 85.1035 18.1321 84.5239 15.6925C82.7963 8.42151 76.8926 2.4845 69.5172 0.599773C66.5669 -0.153739 62.1262 -0.203251 59.2737 0.485194ZM97.717 0.839098C97.2343 0.930827 96.802 1.37582 96.5043 2.08744C96.1027 3.04758 84.6852 35.5828 83.7618 38.3976C83.5739 38.9711 83.5282 39.5488 83.6606 39.6815C84.0361 40.0582 91.449 40.1766 92.0936 39.816C92.4263 39.6304 93.0833 38.2439 93.6654 36.5004C94.6659 33.5039 94.6659 33.5039 102.189 33.5039C109.712 33.5039 109.712 33.5039 110.699 36.3544C111.242 37.9227 111.956 39.4031 112.286 39.644C112.713 39.956 113.976 40.0826 116.654 40.0826C120.72 40.0826 121.438 39.9525 121.438 39.2152C121.438 38.1684 108.232 1.39042 107.72 1.01017C107.195 0.620404 99.5529 0.489956 97.717 0.839098ZM116.7 0.91686C116.017 1.21268 115.977 1.41423 115.977 4.53873C115.977 9.44767 115.746 9.27405 122.26 9.27405C127.543 9.27405 127.543 9.27405 127.543 24.1742C127.543 37.6558 127.594 39.125 128.078 39.6094C128.535 40.0658 129.217 40.128 132.71 40.0335H132.844H133.004C133.004 40.0335 135.093 40.2433 136.86 39.7621C136.86 39.7621 136.86 37.4926 136.86 24.2081C136.86 9.27405 136.86 9.27405 142.134 9.27405C145.035 9.27405 147.638 9.18613 147.917 9.07916C148.341 8.91665 148.425 8.2536 148.425 5.08656C148.425 2.99743 148.317 1.22252 148.185 1.14158C147.666 0.825446 117.41 0.609615 116.7 0.91686ZM99.8125 18.0458C98.6308 21.6346 97.664 24.6674 97.664 24.7851C97.664 24.9029 99.7491 24.9994 102.297 24.9994C106.931 24.9994 106.931 24.9994 104.679 18.2597C103.441 14.5531 102.323 11.5203 102.195 11.5203C102.066 11.5203 100.994 14.4569 99.8125 18.0458ZM36.7007 46.8265C33.3454 48.0177 30.5767 50.801 29.4014 54.1639C28.6742 56.2444 28.7669 59.8933 29.6036 62.1262C30.4955 64.5077 32.9404 67.1148 35.4971 68.4098C40.0642 70.724 46.3687 69.5918 49.8348 65.8354C54.5818 60.6912 53.9064 52.7552 48.3601 48.5062C45.408 46.2444 40.3803 45.5201 36.7007 46.8265ZM135.967 46.6313C132.204 47.8622 130.272 51.2387 131.226 54.9151C131.935 57.6435 133.244 58.5846 138.649 60.25C142.741 61.5108 143.849 62.6106 142.373 63.9449C141.96 64.3188 141.157 64.4886 139.702 64.5105C137.92 64.5372 137.295 64.3769 135.336 63.3914C133.05 62.2414 133.05 62.2414 131.616 63.9033C130.828 64.8174 130.244 65.7252 130.319 65.9207C130.508 66.4124 133.665 68.2885 135.328 68.897C136.166 69.2043 137.823 69.4087 139.591 69.4236C142.146 69.4445 142.698 69.3414 144.346 68.5336C146.777 67.3411 147.855 65.7782 148.043 63.172C148.219 60.7372 147.996 59.9237 146.764 58.5227C145.499 57.083 144.288 56.4742 140.16 55.2021C136.565 54.094 135.854 53.4897 136.494 52.0858C137.148 50.6521 140.092 50.6639 142.951 52.1112C143.83 52.5559 144.678 52.92 144.835 52.92C144.993 52.92 145.667 52.0988 146.334 51.0959C147.547 49.2717 147.547 49.2717 146.781 48.6423C146.36 48.2957 145.243 47.6555 144.299 47.2194C142.163 46.2333 138.068 45.9441 135.967 46.6313ZM0.210248 46.7154C-0.0573847 46.9826 -0.0756986 68.0848 0.190982 68.7793C0.342605 69.1741 0.87657 69.2871 2.5893 69.2871C4.46619 69.2871 4.84368 69.1919 5.13766 68.6431C5.3526 68.2419 5.46795 65.7487 5.44319 62.0373C5.42167 58.7586 5.47242 56.0073 5.55596 55.9242C5.6395 55.8407 6.89663 57.5854 8.35011 59.8019C9.80324 62.018 11.1866 63.8313 11.4244 63.8313C11.6621 63.8313 13.1275 61.918 14.6808 59.579C17.5055 55.3268 17.5055 55.3268 17.6661 62.2268C17.8268 69.1265 17.8268 69.1265 20.2364 69.1265C22.6459 69.1265 22.6459 69.1265 22.6459 57.8943C22.6459 46.6618 22.6459 46.6618 19.9266 46.6618C17.2077 46.6618 17.2077 46.6617 14.6256 50.7413C13.2056 52.985 11.8838 54.9789 11.6882 55.1726C11.4292 55.4281 10.6099 54.3635 8.67297 51.2533C7.21023 48.9045 5.85219 46.8766 5.65524 46.7468C5.20707 46.4519 0.50102 46.4247 0.210248 46.7154ZM55.8356 46.6703C55.6499 46.8563 59.5174 57.1128 62.5486 64.4731C64.4648 69.1265 64.4648 69.1265 66.7174 69.2201C68.2749 69.2846 69.0665 69.1852 69.2829 68.8989C69.5661 68.525 71.6574 63.431 76.4575 51.4282C77.3852 49.1076 78.0461 47.0493 77.9258 46.8551C77.5976 46.3247 73.0924 46.3954 72.642 46.9376C72.4423 47.1775 71.1356 50.4633 69.7374 54.2384C68.339 58.0143 67.0748 61.0829 66.9278 61.0575C66.7809 61.0324 65.5043 57.9276 64.0906 54.1575C62.6768 50.388 61.4034 47.1233 61.2603 46.9023C61.0035 46.5056 56.206 46.3009 55.8356 46.6703ZM83.4016 47.009C83.2943 47.2883 83.2064 52.1864 83.2064 57.8943C83.2064 63.6018 83.2943 68.5003 83.4016 68.7793C83.5724 69.2242 84.6268 69.2871 91.9257 69.2871C101.445 69.2871 100.882 69.4807 100.564 66.3146C100.395 64.6337 100.395 64.6337 94.5316 64.5461C88.6682 64.4588 88.6682 64.4588 88.6682 62.4141C88.6682 60.8461 88.7863 60.3246 89.1764 60.1751C89.456 60.0678 91.7693 59.9802 94.3167 59.9802C98.9489 59.9802 98.9489 59.9802 98.9489 57.768C98.9489 56.047 98.8362 55.5125 98.4407 55.3611C98.1611 55.2538 95.8482 55.1662 93.3004 55.1662C88.6682 55.1662 88.6682 55.1662 88.6682 53.2409C88.6682 51.3152 88.6682 51.3152 94.2263 51.3152C98.1208 51.3152 99.8995 51.2 100.17 50.9302C100.571 50.529 100.699 47.8917 100.36 47.009C100.19 46.5643 99.139 46.5015 91.881 46.5015C84.623 46.5015 83.5724 46.5643 83.4016 47.009ZM106.724 46.8865C106.172 47.4378 106.172 68.3504 106.724 68.9021C106.948 69.1255 108.021 69.2871 109.283 69.2871C111.987 69.2871 112.121 69.0909 112.121 65.1361C112.121 62.2268 112.121 62.2268 113.84 62.2268C115.559 62.2268 115.559 62.2268 117.414 65.0349C120.301 69.4052 120.139 69.2871 123.261 69.2871C124.843 69.2871 125.936 69.1547 125.936 68.964C125.936 68.7862 124.821 66.9678 123.458 64.9235C121.136 61.4409 121.019 61.1848 121.61 60.8667C123.001 60.1186 124.865 57.8168 125.281 56.3355C126.443 52.1903 124.294 48.1634 120.277 46.9557C118.3 46.3612 107.306 46.305 106.724 46.8865ZM38.6721 51.3422C37.3469 51.7262 35.1505 54.1445 34.7198 55.6944C33.3458 60.6385 37.0822 65.3218 41.8223 64.5962C44.1879 64.2337 45.607 63.2098 46.6763 61.0921C47.5342 59.3943 47.645 57.9219 47.0654 55.9299C45.9606 52.1334 42.4895 50.2363 38.6721 51.3422ZM112.012 52.002C111.693 53.1929 111.766 56.1083 112.132 56.7923C112.411 57.3115 112.817 57.4125 114.622 57.4109C117.329 57.4087 119.029 56.9478 119.662 56.0454C120.393 55.0027 120.275 53.4176 119.389 52.3889C118.667 51.5504 118.448 51.4942 115.42 51.3729C112.275 51.2469 112.211 51.2584 112.012 52.002Z" fill="white"/>
</svg>
