<svg preserveAspectRatio="none" width="100%" height="100%" overflow="visible" style="display: block;" viewBox="0 0 82.4061 38.6467" fill="none" xmlns="http://www.w3.org/2000/svg">
<path id="Vector" fill-rule="evenodd" clip-rule="evenodd" d="M9.0056 0.235193C6.56849 0.794346 4.20112 2.13839 2.76397 3.77867C1.73084 4.95795 0.616356 7.09358 0.271559 8.55464C-0.304053 10.9939 0.0651855 14.2189 1.17003 16.4016C2.67299 19.3706 5.53607 21.5871 8.86415 22.3581C10.3862 22.7107 13.1542 22.7049 14.5352 22.3461C19.1288 21.1529 22.3491 17.2195 22.7597 12.3002C22.974 9.73427 23.5011 9.9475 17.0728 10.0018C11.5028 10.0488 11.5028 10.0488 11.4522 12.0837C11.4145 13.5916 11.4607 14.1559 11.6305 14.2635C11.7565 14.3434 13.0033 14.41 14.4013 14.4116C15.7995 14.413 16.9431 14.4787 16.9431 14.5575C16.9431 14.6364 16.7098 15.0683 16.4247 15.5175C14.9361 17.8622 11.3894 18.6083 8.55449 17.1733C7.40702 16.5925 5.99127 14.9986 5.59137 13.8373C5.14579 12.5431 5.16773 10.0005 5.63435 8.85933C6.76506 6.09423 9.03824 4.67511 12.1011 4.82173C13.757 4.9012 14.7585 5.3437 16.1427 6.60721C16.6762 7.09446 17.2262 7.46665 17.3643 7.43457C17.6857 7.35985 20.8674 4.65572 20.8674 4.45712C20.8674 4.11754 19.3657 2.64115 18.2363 1.87036C16.3489 0.582173 14.7939 0.110603 12.2163 0.0443434C10.8425 0.00927523 9.69252 0.0774746 9.0056 0.235193ZM32.9089 0.269381C28.9537 1.2245 25.6683 4.35174 24.5064 8.26705C23.813 10.6038 24.2576 15.305 25.1724 15.305C26.6593 15.305 29.7529 13.9132 30.9821 12.6909C31.8001 11.8777 33.6194 8.48415 33.4599 8.06897C33.1758 7.3299 30.4663 8.33753 29.4036 9.57743C29.0574 9.98151 28.6667 10.6378 28.5352 11.0357C28.144 12.2197 27.9415 12.1004 28.039 10.7435C28.2013 8.48697 29.6507 6.39768 31.7019 5.46388C33.0153 4.86596 35.2445 4.9012 36.6122 5.54159C38.0408 6.21018 40.2482 7.76605 40.7078 8.42794C40.9183 8.73139 41.5793 9.5036 42.1769 10.144C44.7364 12.8867 44.9598 14.8528 42.7514 15.2037C42.2324 15.286 41.8007 15.5207 41.336 15.9732C40.6096 16.6802 40.3752 16.6309 40.2792 15.7505C40.2209 15.216 40.2209 15.216 38.8155 15.1637C37.4101 15.111 37.4101 15.111 36.6479 15.9057C35.9029 16.6824 32.8185 21.6138 32.8185 22.0281C32.8185 22.6135 36.5482 22.8212 38.4444 22.3414C39.0291 22.1935 40.1897 21.7399 41.0235 21.3336C43.7908 19.9855 46.0621 17.2084 46.8468 14.2138C47.2089 12.8312 47.2496 10.067 46.9279 8.71254C45.9687 4.67564 42.691 1.3794 38.5961 0.332995C36.9581 -0.085356 34.4926 -0.112845 32.9089 0.269381ZM54.2527 0.465869C53.9847 0.516797 53.7447 0.763861 53.5794 1.15895C53.3564 1.69202 47.0174 19.7557 46.5048 21.3184C46.4004 21.6368 46.3751 21.9576 46.4485 22.0312C46.657 22.2404 50.7727 22.3061 51.1306 22.1059C51.3153 22.0029 51.68 21.2331 52.0032 20.2651C52.5587 18.6014 52.5587 18.6014 56.7353 18.6014C60.9122 18.6014 60.9121 18.6014 61.4602 20.1841C61.7615 21.0548 62.1582 21.8767 62.3415 22.0104C62.5785 22.1837 63.2797 22.254 64.7667 22.254C67.0242 22.254 67.4229 22.1817 67.4229 21.7724C67.4229 21.1912 60.0908 0.771965 59.8064 0.56085C59.5151 0.34445 55.272 0.272025 54.2527 0.465869ZM64.7919 0.509043C64.4128 0.673282 64.3904 0.785182 64.3904 2.51991C64.3904 5.24536 64.2627 5.14897 67.8789 5.14897C70.812 5.14897 70.812 5.14897 70.812 13.4215C70.812 20.9066 70.8403 21.7223 71.1094 21.9912C71.363 22.2446 71.7414 22.2792 73.6809 22.2267H73.755H73.8442C73.8442 22.2267 75.0038 22.3431 75.9848 22.076C75.9848 22.076 75.9848 20.816 75.9848 13.4404C75.9848 5.14897 75.9848 5.14897 78.9132 5.14897C80.5239 5.14897 81.9688 5.10016 82.124 5.04077C82.3593 4.95055 82.4061 4.58242 82.4061 2.82407C82.4061 1.66418 82.346 0.678743 82.2724 0.633807C81.9846 0.458289 65.1861 0.33846 64.7919 0.509043ZM55.4161 10.019C54.7601 12.0116 54.2233 13.6954 54.2233 13.7608C54.2233 13.8261 55.3809 13.8797 56.7958 13.8797C59.3684 13.8797 59.3684 13.8797 58.1181 10.1378C57.4307 8.0799 56.8099 6.39609 56.7387 6.39609C56.6673 6.39609 56.0722 8.0265 55.4161 10.019ZM20.3763 25.9982C18.5135 26.6595 16.9763 28.2048 16.3237 30.0719C15.92 31.227 15.9715 33.2529 16.436 34.4926C16.9312 35.8148 18.2886 37.2623 19.7081 37.9813C22.2437 39.2661 25.744 38.6375 27.6684 36.5519C30.304 33.6959 29.929 29.2898 26.8496 26.9307C25.2106 25.675 22.4192 25.2728 20.3763 25.9982ZM75.4892 25.8898C73.4001 26.5732 72.3271 28.4478 72.8572 30.489C73.2507 32.0038 73.9774 32.5263 76.9785 33.451C79.2502 34.1509 79.8654 34.7615 79.0458 35.5024C78.8163 35.7099 78.3707 35.8042 77.5629 35.8164C76.5734 35.8312 76.2264 35.7422 75.1387 35.195C73.8694 34.5566 73.8694 34.5566 73.0736 35.4793C72.6359 35.9868 72.3118 36.4908 72.3534 36.5993C72.4582 36.8723 74.2109 37.9139 75.1342 38.2518C75.5994 38.4224 76.5198 38.5358 77.501 38.5441C78.9199 38.5558 79.2264 38.4985 80.141 38.05C81.4908 37.3879 82.0893 36.5202 82.194 35.0733C82.2918 33.7215 82.1677 33.2698 81.484 32.4919C80.7812 31.6926 80.1089 31.3546 77.8173 30.6483C75.8211 30.0331 75.4265 29.6976 75.7819 28.9182C76.1451 28.1222 77.7793 28.1287 79.3668 28.9323C79.8548 29.1792 80.3255 29.3813 80.4129 29.3813C80.5005 29.3813 80.8748 28.9254 81.2452 28.3685C81.9182 27.3558 81.9182 27.3558 81.4933 27.0063C81.2596 26.8139 80.6393 26.4585 80.1151 26.2163C78.9295 25.6688 76.6555 25.5083 75.4892 25.8898ZM0.11673 25.9365C-0.0318601 26.0849 -0.042028 37.8008 0.106034 38.1864C0.190215 38.4056 0.486673 38.4683 1.43759 38.4683C2.47964 38.4683 2.68922 38.4155 2.85244 38.1108C2.97178 37.888 3.03581 36.5038 3.02207 34.4433C3.01012 32.6229 3.0383 31.0954 3.08468 31.0492C3.13106 31.0029 3.82903 31.9716 4.636 33.2021C5.44278 34.4325 6.21084 35.4393 6.34285 35.4393C6.47484 35.4393 7.28841 34.377 8.15084 33.0784C9.71909 30.7176 9.71909 30.7176 9.80828 34.5485C9.89746 38.3792 9.89746 38.3792 11.2353 38.3792C12.5731 38.3792 12.5731 38.3792 12.5731 32.143C12.5731 25.9067 12.5731 25.9067 11.0633 25.9067C9.55374 25.9067 9.55374 25.9067 8.12016 28.1717C7.33176 29.4174 6.59792 30.5244 6.48929 30.6319C6.34553 30.7738 5.89067 30.1827 4.81525 28.4559C4.00313 27.1519 3.24915 26.026 3.1398 25.9539C2.89098 25.7902 0.278167 25.7751 0.11673 25.9365ZM31 25.9115C30.8969 26.0147 33.0442 31.7092 34.7271 35.7956C35.791 38.3792 35.791 38.3792 37.0416 38.4312C37.9063 38.4669 38.3458 38.4118 38.466 38.2528C38.6232 38.0452 39.7843 35.217 42.4494 28.553C42.9645 27.2647 43.3313 26.1219 43.2646 26.014C43.0823 25.7196 40.581 25.7589 40.331 26.0598C40.2201 26.1931 39.4946 28.0173 38.7184 30.1133C37.9419 32.2096 37.2401 33.9134 37.1585 33.8993C37.0769 33.8853 36.3681 32.1615 35.5832 30.0684C34.7983 27.9756 34.0913 26.1629 34.0118 26.0403C33.8693 25.82 31.2057 25.7063 31 25.9115ZM46.3047 26.0995C46.2452 26.2546 46.1964 28.974 46.1964 32.143C46.1964 35.3119 46.2452 38.0315 46.3047 38.1864C46.3996 38.4335 46.985 38.4683 51.0374 38.4683C56.3224 38.4683 56.0102 38.5758 55.8334 36.818C55.7393 35.8848 55.7393 35.8848 52.4841 35.8361C49.2288 35.7877 49.2288 35.7877 49.2288 34.6524C49.2288 33.7819 49.2944 33.4924 49.5109 33.4094C49.6662 33.3498 50.9505 33.3012 52.3648 33.3012C54.9366 33.3012 54.9366 33.3012 54.9366 32.0729C54.9366 31.1174 54.8741 30.8207 54.6545 30.7366C54.4993 30.677 53.2151 30.6284 51.8006 30.6284C49.2288 30.6284 49.2288 30.6284 49.2288 29.5594C49.2288 28.4903 49.2288 28.4903 52.3146 28.4903C54.4769 28.4903 55.4644 28.4263 55.6146 28.2765C55.8375 28.0538 55.9085 26.5896 55.7203 26.0995C55.6255 25.8526 55.0422 25.8177 51.0125 25.8177C46.9828 25.8177 46.3996 25.8526 46.3047 26.0995ZM59.2534 26.0315C58.9469 26.3376 58.9469 37.9483 59.2534 38.2546C59.3776 38.3787 59.9734 38.4683 60.6741 38.4683C62.1757 38.4683 62.25 38.3594 62.25 36.1637C62.25 34.5485 62.25 34.5485 63.2043 34.5485C64.1585 34.5485 64.1585 34.5485 65.1885 36.1075C66.7916 38.5339 66.7012 38.4683 68.4349 38.4683C69.3132 38.4683 69.9201 38.3949 69.9201 38.289C69.9201 38.1903 69.3009 37.1807 68.5442 36.0456C67.2549 34.1121 67.1901 33.9699 67.5184 33.7933C68.2906 33.378 69.3255 32.1 69.5562 31.2776C70.2012 28.9761 69.0085 26.7404 66.7782 26.0699C65.6805 25.7398 59.5766 25.7086 59.2534 26.0315ZM21.4708 28.5053C20.7351 28.7185 19.5156 30.0611 19.2765 30.9216C18.5136 33.6666 20.5881 36.2668 23.2198 35.864C24.5332 35.6627 25.3211 35.0942 25.9148 33.9185C26.3911 32.9759 26.4526 32.1584 26.1308 31.0524C25.5174 28.9446 23.5902 27.8913 21.4708 28.5053ZM62.1892 28.8716C62.0121 29.5328 62.0528 31.1514 62.2562 31.5312C62.4107 31.8195 62.6363 31.8755 63.6387 31.8746C65.1411 31.8734 66.085 31.6175 66.4365 31.1165C66.8424 30.5376 66.7768 29.6576 66.285 29.0865C65.8843 28.6209 65.7625 28.5897 64.0813 28.5224C62.3351 28.4524 62.2997 28.4588 62.1892 28.8716Z" fill="#FFE533"/>
</svg>
