<svg preserveAspectRatio="none" width="100%" height="100%" overflow="visible" style="display: block;" viewBox="0 0 27 30" fill="none" xmlns="http://www.w3.org/2000/svg">
<path id="Icon" fill-rule="evenodd" clip-rule="evenodd" d="M20.7578 1.20727e-06H6.24219C5.45149 -2.44535e-05 4.76931 -4.65894e-05 4.20746 0.045858C3.61444 0.0943095 3.02462 0.201283 2.45705 0.490475C1.61032 0.921905 0.921905 1.61032 0.490475 2.45705C0.201283 3.02462 0.0943095 3.61444 0.0458579 4.20746C-4.66118e-05 4.76931 -2.44652e-05 5.45143 1.20816e-06 6.24213V23.7578C-2.44652e-05 24.5485 -4.66118e-05 25.2307 0.0458579 25.7925C0.0943095 26.3856 0.201283 26.9754 0.490475 27.543C0.921905 28.3897 1.61032 29.0781 2.45705 29.5095C3.02462 29.7987 3.61444 29.9057 4.20746 29.9541C4.76931 30.0001 5.45145 30 6.24215 30H20.7579C21.5486 30 22.2307 30.0001 22.7925 29.9541C23.3856 29.9057 23.9754 29.7987 24.543 29.5095C25.3897 29.0781 26.0781 28.3897 26.5095 27.543C26.7987 26.9754 26.9057 26.3856 26.9541 25.7925C27.0001 25.2307 27 24.5486 27 23.7579V6.24215C27 5.45145 27.0001 4.76931 26.9541 4.20746C26.9057 3.61444 26.7987 3.02462 26.5095 2.45705C26.0781 1.61032 25.3897 0.921905 24.543 0.490475C23.9754 0.201283 23.3856 0.0943095 22.7925 0.045858C22.2307 -4.65894e-05 21.5485 -2.44535e-05 20.7578 1.20727e-06ZM6 6C5.17158 6 4.5 6.67157 4.5 7.5C4.5 8.32843 5.17158 9 6 9H12C12.8284 9 13.5 8.32843 13.5 7.5C13.5 6.67157 12.8284 6 12 6H6ZM6 12C5.17158 12 4.5 12.6716 4.5 13.5C4.5 14.3284 5.17158 15 6 15H21C21.8284 15 22.5 14.3284 22.5 13.5C22.5 12.6716 21.8284 12 21 12H6ZM11.5607 18.4393C12.1464 19.0251 12.1464 19.9749 11.5607 20.5607L8.56066 23.5607C7.97488 24.1464 7.02513 24.1464 6.43934 23.5607L4.93934 22.0607C4.35355 21.4749 4.35355 20.5251 4.93934 19.9393C5.52513 19.3536 6.47488 19.3536 7.06066 19.9393L7.5 20.3787L9.43934 18.4393C10.0251 17.8536 10.9749 17.8536 11.5607 18.4393ZM16.5 18C15.6716 18 15 18.6716 15 19.5C15 20.3284 15.6716 21 16.5 21H21C21.8284 21 22.5 20.3284 22.5 19.5C22.5 18.6716 21.8284 18 21 18H16.5Z" fill="#FFE533"/>
</svg>
