<svg preserveAspectRatio="none" width="100%" height="100%" overflow="visible" style="display: block;" viewBox="0 0 15.5193 15.5443" fill="none" xmlns="http://www.w3.org/2000/svg">
<path id="Vector" d="M4.24393 11.2586C6.66321 13.6775 9.60964 15.5443 12.0118 15.5443C13.0918 15.5443 14.0375 15.1675 14.7993 14.3304C15.2429 13.8364 15.5193 13.2589 15.5193 12.69C15.5193 12.2714 15.36 11.8696 14.9586 11.585L12.3968 9.76C12.0036 9.49214 11.6771 9.35822 11.3757 9.35822C10.9907 9.35822 10.6557 9.57607 10.2707 9.9525L9.67643 10.5386C9.63486 10.5807 9.58538 10.6142 9.53084 10.6372C9.4763 10.6602 9.41776 10.6722 9.35857 10.6725C9.22464 10.6725 9.10714 10.6225 9.01536 10.5804C8.50464 10.3043 7.6175 9.5425 6.78857 8.72214C5.96821 7.90179 5.20643 7.01464 4.93857 6.49571C4.88088 6.3933 4.84935 6.27823 4.84679 6.16071C4.84679 6.05214 4.88 5.94286 4.97214 5.85107L5.55786 5.24036C5.935 4.855 6.1525 4.52 6.1525 4.135C6.1525 3.83393 6.01857 3.5075 5.7425 3.11393L3.9425 0.5775C3.64964 0.175714 3.23964 0 2.7875 0C2.235 0 1.6575 0.251071 1.17214 0.728571C0.36 1.50714 0 2.46929 0 3.53214C0 5.93464 1.83321 8.84786 4.24393 11.2586Z" fill="#FFE533"/>
</svg>
