<svg preserveAspectRatio="none" width="100%" height="100%" overflow="visible" style="display: block;" viewBox="0 0 27.0008 29.7291" fill="none" xmlns="http://www.w3.org/2000/svg">
<path id="Icon" fill-rule="evenodd" clip-rule="evenodd" d="M13.0713 0.030839C13.3559 -0.0102797 13.6449 -0.0102797 13.9294 0.030839C14.2574 0.0782281 14.5626 0.193511 14.8049 0.28505L14.8698 0.309516L23.1084 3.3988C24.0351 3.74478 24.8489 4.04861 25.4757 4.60094C26.0239 5.08412 26.4463 5.69357 26.7062 6.37658C27.0033 7.15735 27.002 8.02602 27.0006 9.01519L27.0004 14.898C27.0004 18.8683 24.5838 22.1257 22.0707 24.4618C19.5257 26.8276 16.6322 28.4834 15.1556 29.2527L15.0988 29.2825C14.8409 29.4177 14.5069 29.5928 14.0733 29.6772C13.7176 29.7463 13.2831 29.7463 12.9275 29.6772C12.4939 29.5928 12.1599 29.4177 11.902 29.2825L11.8452 29.2527C10.3686 28.4834 7.47511 26.8275 4.9301 24.4618C2.41698 22.1257 0.000397246 18.8683 0.000397246 14.898L0.000196081 9.01519C-0.0012364 8.02603 -0.00249454 7.15735 0.294608 6.37658C0.554515 5.69357 0.976858 5.08412 1.52513 4.60094C2.15186 4.04861 2.96567 3.74477 3.89236 3.3988L12.131 0.309517L12.1959 0.285049C12.4382 0.193511 12.7434 0.078228 13.0713 0.030839ZM8.79282 11.1991C10.2958 9.89054 12.2963 10.2749 13.4959 11.704C14.6955 10.2749 16.6701 9.90431 18.199 11.1991C19.7278 12.4939 19.9136 14.6955 18.7333 16.2431C18.0314 17.1634 16.3123 18.8137 15.0339 20.0004C14.5062 20.4902 14.2423 20.7352 13.9247 20.8345C13.653 20.9194 13.3388 20.9194 13.067 20.8345C12.7494 20.7352 12.4856 20.4902 11.9579 20.0004C10.6795 18.8137 8.96041 17.1634 8.25852 16.2431C7.07818 14.6955 7.28979 12.5076 8.79282 11.1991Z" fill="#FFE533"/>
</svg>
