<svg preserveAspectRatio="none" width="100%" height="100%" overflow="visible" style="display: block;" viewBox="0 0 16.4043 15.7211" fill="none" xmlns="http://www.w3.org/2000/svg">
<path id="Icon" fill-rule="evenodd" clip-rule="evenodd" d="M7.64656 0.130264C7.9966 -0.0434212 8.40772 -0.0434212 8.75776 0.130264C9.06656 0.28349 9.22762 0.552739 9.30496 0.691337C9.3886 0.841238 9.47426 1.03351 9.55987 1.22565C9.56398 1.23489 9.5681 1.24412 9.57221 1.25335L11.0698 4.61299L14.7579 5.00225C14.9671 5.02429 15.1764 5.04635 15.3448 5.07957C15.5006 5.11029 15.8064 5.18026 16.0475 5.42661C16.3209 5.70584 16.4479 6.09684 16.3909 6.48342C16.3406 6.82446 16.1343 7.06084 16.0264 7.17722C15.9097 7.30308 15.7533 7.44396 15.597 7.58474L12.8421 10.0675L13.6116 13.6955C13.6552 13.9012 13.6989 14.1071 13.7194 14.2775C13.7383 14.4351 13.7662 14.7476 13.6065 15.0531C13.4254 15.3993 13.0928 15.641 12.7075 15.7062C12.3676 15.7638 12.079 15.6406 11.935 15.5739C11.7793 15.5018 11.597 15.3967 11.4148 15.2915L8.20216 13.4386L4.98954 15.2915C4.80736 15.3967 4.62506 15.5018 4.4693 15.5739C4.32527 15.6406 4.03671 15.7638 3.69682 15.7062C3.31155 15.641 2.97894 15.3993 2.79784 15.0531C2.63808 14.7476 2.66604 14.4351 2.68494 14.2775C2.70538 14.1071 2.74909 13.9012 2.79277 13.6954L3.56226 10.0675L0.829825 7.60506C0.822316 7.59829 0.814803 7.59153 0.80729 7.58476C0.651009 7.44397 0.494624 7.30308 0.377909 7.17722C0.269991 7.06084 0.0636904 6.82446 0.0133901 6.48342C-0.043626 6.09684 0.0834175 5.70584 0.356769 5.42661C0.597923 5.18026 0.903764 5.11029 1.05948 5.07957C1.22788 5.04635 1.4372 5.02429 1.64639 5.00225C1.65645 5.00119 1.66651 5.00013 1.67657 4.99907L5.33455 4.61299L6.83211 1.25335C6.83622 1.24411 6.84034 1.23487 6.84445 1.22564C6.93006 1.0335 7.01572 0.841233 7.09936 0.691337C7.17669 0.552739 7.33775 0.28349 7.64656 0.130264Z" fill="#0C0C0C"/>
</svg>
