<svg id="fi_10041821" enable-background="new 0 0 64 64" height="512" viewBox="0 0 64 64" width="512" xmlns="http://www.w3.org/2000/svg" fill="#FFE533"><g><path d="m14.4 21.3h41.3 1.9c.7 0 1.4.2 2.1.5v-4.6c0-4.5-3.6-8.2-8.1-8.4v4 .6c0 1.1-.9 2-2 2s-2-1-2-2c0-.2 0-.4 0-.6 0-1.3 0-2.6 0-4h-24.7v4 .4c0 1.1-.9 2-2 2s-2-1-2-2c0-.1 0-.3 0-.4s0-.1 0-.2c0-1.3 0-2.5 0-3.8-4.6 0-8.4 3.8-8.4 8.4v6.7c.6-1.6 2.1-2.6 3.9-2.6z"/><path d="m55.7 47.9c-1.4 2.8-4.2 4.5-7.2 4.5h-33-4.5c1.2 3.3 4.3 5.6 7.9 5.6h32.4c4.6 0 8.4-3.8 8.4-8.4v-12.1c-.3 1.1-.7 2.3-1.1 3.4-.8 2.3-1.8 4.7-2.9 7z"/><path d="m57.6 25.3h-43.2c-.2 0-.3.1-.3.3-.6 4.9-1.8 9.7-3.4 14.3-.8 2.1-1.7 4.3-2.7 6.4-.4.9.2 2.1 1.3 2.1h39.3c1.5 0 2.9-.9 3.6-2.2 1-2.1 1.9-4.4 2.7-6.6 1.6-4.5 2.6-9.2 3.1-13.9 0-.1 0-.2-.1-.3s-.2-.1-.3-.1zm-15.2 8.1c-2.7 2.7-5.4 5.4-8.2 8.2-.8.8-2.1.8-2.8 0-1.9-1.9-3.8-3.8-5.7-5.7-1.8-1.8 1-4.7 2.8-2.8 1.4 1.4 2.9 2.9 4.3 4.3 2.3-2.3 4.5-4.5 6.8-6.8 1.8-1.8 4.6 1 2.8 2.8z"/></g></svg>