<svg preserveAspectRatio="xMidYMid meet" width="100%" height="100%" overflow="visible" style="display: block;" viewBox="0 0 23.2995 29.3286" fill="none" xmlns="http://www.w3.org/2000/svg">
<path id="Shape" d="M0.593158 14.1213C0.0953892 14.886 -0.113272 17.2909 0.0601934 18.8853C0.120529 19.4112 0.221088 19.8502 0.364386 20.1131C0.56299 20.475 0.897351 20.6921 1.27696 20.7041C1.52082 20.7162 1.67417 20.6752 6.2622 19.2592C6.2622 19.2592 8.30104 18.6345 8.31109 18.6297C8.81892 18.5042 9.16334 18.0556 9.19602 17.4839C9.2287 16.8953 8.91445 16.3767 8.39154 16.191L6.95103 15.6289C2.01859 13.6775 1.79736 13.6003 1.54847 13.5979C1.16635 13.5858 0.829473 13.7692 0.593158 14.1213ZM11.6245 28.6642C11.705 28.4423 11.715 28.2903 11.7276 23.6638C11.7276 23.6638 11.7377 21.6207 11.7402 21.599C11.7729 21.0973 11.436 20.6414 10.8829 20.4364C10.3122 20.2265 9.69882 20.3568 9.3544 20.7668C9.3544 20.7668 8.3488 21.9126 8.34378 21.9126C4.88956 25.8058 4.74375 25.9867 4.66079 26.2159C4.60799 26.351 4.5904 26.4957 4.60548 26.6404C4.62559 26.8479 4.72364 27.0505 4.88453 27.2411C5.68649 28.1553 9.52786 29.5109 10.7547 29.3083C11.1846 29.2383 11.4938 29.0092 11.6245 28.6642ZM19.4204 27.0553C20.5793 26.6115 23.1059 23.5287 23.2844 22.3396C23.3472 21.9271 23.2115 21.5701 22.9148 21.3433C22.7213 21.2034 22.5729 21.1479 17.9849 19.7031C17.9849 19.7031 15.9737 19.0663 15.9461 19.0542C15.4584 18.8733 14.9028 19.0421 14.5307 19.4836C14.141 19.937 14.0832 20.5377 14.3949 20.9887L15.2044 22.2527C17.9271 26.4957 18.1358 26.7948 18.3318 26.9419C18.6335 27.1711 19.0182 27.2097 19.4204 27.0553ZM17.0497 16.1331C22.2612 14.9222 22.4648 14.857 22.6685 14.7268C22.9852 14.5218 23.1436 14.1816 23.116 13.7668C23.116 13.7547 23.1185 13.7402 23.116 13.7257C22.9827 12.4955 20.7402 9.30185 19.6341 8.78324C19.2419 8.60233 18.8497 8.61439 18.5254 8.82424C18.3243 8.94968 18.176 9.14024 15.3854 12.8043C15.3854 12.8043 14.1259 14.4518 14.1109 14.4687C13.779 14.857 13.774 15.4118 14.0983 15.8894C14.4352 16.3839 15.0033 16.6227 15.5237 16.4853C15.5237 16.4853 15.5036 16.5214 15.4986 16.5263C15.755 16.4322 16.2126 16.3236 17.0497 16.1331ZM11.8181 12.0035C11.7276 10.0207 11.1066 1.19459 11.0337 0.786939C10.9282 0.415467 10.6265 0.152542 10.1941 0.0464076C8.86166 -0.269585 3.77586 1.09811 2.83312 2.0292C2.52893 2.33313 2.41831 2.7046 2.50882 3.03507C2.65714 3.32694 8.9597 12.8405 8.9597 12.8405C9.88988 14.2902 10.6516 14.0634 10.9005 13.9887C11.1469 13.9187 11.9036 13.692 11.8181 12.0035Z" fill="white" fill-opacity="0.8"/>
</svg>
