<svg preserveAspectRatio="none" width="100%" height="100%" overflow="visible" style="display: block;" viewBox="0 0 18.0003 24.0001" fill="none" xmlns="http://www.w3.org/2000/svg">
<path id="Vector" fill-rule="evenodd" clip-rule="evenodd" d="M1.9802 11.2638L6.6812 13.5418C6.87909 13.638 7.04272 13.7925 7.15002 13.9845C7.25731 14.1766 7.3031 14.3969 7.2812 14.6158C7.25805 14.835 7.16783 15.0416 7.02286 15.2075C6.87788 15.3734 6.68522 15.4905 6.4712 15.5428L1.3932 16.7998C1.16874 16.8542 0.932829 16.8358 0.719493 16.7474C0.506156 16.6589 0.326417 16.505 0.206197 16.3078C0.128283 16.1765 0.0785614 16.0304 0.0601971 15.8788C-0.0946497 14.5319 0.050137 13.1673 0.484197 11.8828C0.533354 11.7383 0.612863 11.606 0.717385 11.4948C0.821908 11.3835 0.949024 11.2959 1.0902 11.2378C1.23188 11.1802 1.38404 11.1527 1.53694 11.1572C1.68984 11.1617 1.84013 11.198 1.9782 11.2638M3.8622 20.8788L7.3622 17.0178C7.51054 16.8539 7.70564 16.7394 7.92114 16.6898C8.13663 16.6403 8.36214 16.6581 8.5672 16.7408C8.77088 16.8236 8.94445 16.9666 9.06471 17.1506C9.18497 17.3347 9.24619 17.5511 9.2402 17.7708L9.0572 22.9658C9.05168 23.1186 9.01348 23.2685 8.94517 23.4053C8.87686 23.5421 8.78003 23.6626 8.6612 23.7589C8.54199 23.8555 8.40353 23.9257 8.25506 23.9647C8.1066 24.0037 7.95153 24.0105 7.8002 23.9848C6.45649 23.7604 5.17764 23.2465 4.0522 22.4788C3.9258 22.3927 3.81934 22.2805 3.73999 22.1497C3.66064 22.019 3.61024 21.8727 3.5922 21.7208C3.5746 21.5694 3.58959 21.4159 3.63615 21.2707C3.68272 21.1254 3.75979 20.9919 3.8622 20.8788ZM12.1602 15.7398L17.1352 17.3458C17.2807 17.393 17.4144 17.4705 17.5277 17.5733C17.641 17.676 17.7311 17.8017 17.7922 17.9418C17.8532 18.0817 17.8832 18.2331 17.8803 18.3857C17.8773 18.5383 17.8415 18.6884 17.7752 18.8258C17.1873 20.0501 16.3384 21.1308 15.2882 21.9918C15.1697 22.0893 15.0317 22.1604 14.8836 22.2005C14.7355 22.2406 14.5805 22.2487 14.429 22.2243C14.2775 22.1999 14.1329 22.1436 14.0048 22.059C13.8768 21.9744 13.7681 21.8636 13.6862 21.7338L10.9132 17.3258C10.7962 17.1398 10.7396 16.922 10.7513 16.7025C10.7629 16.483 10.8422 16.2725 10.9782 16.0998C11.1147 15.9261 11.3013 15.7985 11.5126 15.7341C11.724 15.6697 11.95 15.6717 12.1602 15.7398ZM17.2192 12.5878L12.1902 14.0208C11.9778 14.081 11.7521 14.075 11.5432 14.0035C11.3343 13.932 11.1522 13.7985 11.0212 13.6208C10.8913 13.4434 10.8196 13.2301 10.8159 13.0102C10.8121 12.7903 10.8765 12.5747 11.0002 12.3928L13.9262 8.08485C14.0121 7.95851 14.1238 7.85183 14.2539 7.77184C14.3841 7.69186 14.5297 7.6404 14.6812 7.62085C14.833 7.60226 14.9869 7.61551 15.1333 7.65976C15.2796 7.70401 15.4152 7.77829 15.5312 7.87785C16.5545 8.77217 17.367 9.8821 17.9102 11.1278C17.9717 11.2681 18.0024 11.4199 18.0002 11.573C17.998 11.7261 17.9629 11.8769 17.8974 12.0153C17.8319 12.1537 17.7375 12.2765 17.6205 12.3752C17.5035 12.474 17.3666 12.5465 17.2192 12.5878ZM5.4692 0.467849C4.58036 0.703286 3.71505 1.01995 2.8842 1.41385C2.75066 1.47775 2.63168 1.56843 2.53466 1.68025C2.43764 1.79206 2.36464 1.92263 2.3202 2.06385C2.27627 2.20464 2.26221 2.35305 2.27892 2.49958C2.29562 2.64612 2.34272 2.78755 2.4172 2.91485L7.3322 11.3708C7.45106 11.5759 7.63429 11.736 7.85345 11.8262C8.07261 11.9164 8.31542 11.9318 8.5442 11.8698C8.77323 11.8106 8.97605 11.6768 9.12071 11.4896C9.26536 11.3024 9.34364 11.0724 9.3432 10.8358V1.07185C9.34405 0.848927 9.27493 0.631357 9.14558 0.4498C9.01623 0.268243 8.83317 0.131852 8.6222 0.0598485C8.48187 0.0115645 8.33322 -0.00782454 8.1852 0.00284854C7.2672 0.0748485 6.3592 0.230849 5.4702 0.467849" fill="white"/>
</svg>
