<svg preserveAspectRatio="xMidYMid meet" width="100%" height="100%" overflow="visible" style="display: block;" viewBox="0 0 17.4746 21.9965" fill="none" xmlns="http://www.w3.org/2000/svg">
<path id="Shape" d="M0.444869 10.591C0.0715419 11.1645 -0.0849537 12.9682 0.045145 14.164C0.0903968 14.5584 0.165816 14.8877 0.273289 15.0849C0.422243 15.3562 0.673013 15.519 0.957722 15.5281C1.14061 15.5371 1.25563 15.5064 4.69665 14.4444C4.69665 14.4444 6.22578 13.9759 6.23332 13.9722C6.61419 13.8782 6.8725 13.5417 6.89701 13.1129C6.92152 12.6715 6.68584 12.2825 6.29366 12.1432L5.21327 11.7217C1.51394 10.2581 1.34802 10.2002 1.16135 10.1984C0.87476 10.1894 0.622105 10.3269 0.444869 10.591ZM8.7184 21.4982C8.77873 21.3317 8.78627 21.2178 8.7957 17.7479C8.7957 17.7479 8.80324 16.2155 8.80513 16.1993C8.82964 15.823 8.57698 15.481 8.16218 15.3273C7.73417 15.1699 7.27411 15.2676 7.0158 15.5751C7.0158 15.5751 6.2616 16.4345 6.25783 16.4345C3.66717 19.3544 3.55781 19.4901 3.49559 19.6619C3.45599 19.7632 3.4428 19.8718 3.45411 19.9803C3.46919 20.1359 3.54273 20.2879 3.6634 20.4308C4.26487 21.1164 7.1459 22.1332 8.06602 21.9812C8.38843 21.9287 8.62035 21.7569 8.7184 21.4982ZM14.5653 20.2915C15.4345 19.9586 17.3294 17.6466 17.4633 16.7547C17.5104 16.4453 17.4086 16.1776 17.1861 16.0075C17.0409 15.9026 16.9297 15.861 13.4887 14.7773C13.4887 14.7773 11.9803 14.2997 11.9596 14.2906C11.5938 14.155 11.1771 14.2816 10.898 14.6127C10.6058 14.9528 10.5624 15.4033 10.7962 15.7416L11.4033 16.6895C13.4453 19.8718 13.6018 20.0961 13.7489 20.2065C13.9751 20.3783 14.2636 20.4073 14.5653 20.2915ZM12.7873 12.0998C16.6959 11.1916 16.8486 11.1428 17.0013 11.0451C17.2389 10.8913 17.3577 10.6362 17.337 10.3251C17.337 10.316 17.3389 10.3052 17.337 10.2943C17.237 9.37166 15.5552 6.97639 14.7256 6.58743C14.4314 6.45174 14.1373 6.46079 13.8941 6.61818C13.7432 6.71226 13.632 6.85518 11.5391 9.60323C11.5391 9.60323 10.5945 10.8389 10.5831 10.8515C10.3343 11.1428 10.3305 11.5589 10.5737 11.9171C10.8264 12.288 11.2525 12.4671 11.6428 12.3639C11.6428 12.3639 11.6277 12.3911 11.6239 12.3947C11.8163 12.3241 12.1594 12.2427 12.7873 12.0998ZM8.86358 9.0026C8.7957 7.5155 8.32998 0.895945 8.27531 0.590205C8.19612 0.311601 7.96986 0.114407 7.64555 0.0348057C6.64624 -0.202189 2.8319 0.823581 2.12484 1.5219C1.8967 1.74985 1.81373 2.02845 1.88161 2.2763C1.99286 2.4952 6.71978 9.63036 6.71978 9.63036C7.41741 10.7176 7.98871 10.5476 8.17537 10.4915C8.36015 10.439 8.92769 10.269 8.86358 9.0026Z" fill="white"/>
</svg>
